<svg width="80" height="80" viewBox="0 0 80 80" fill="none" xmlns="http://www.w3.org/2000/svg">
<path d="M71.734 31.7313C71.734 30.9168 71.4104 30.1357 70.8345 29.5597C70.2586 28.9838 69.4774 28.6602 68.6629 28.6602C67.8485 28.6602 67.0673 28.9838 66.4914 29.5597C65.9155 30.1357 65.5919 30.9168 65.5919 31.7313H71.734ZM14.4081 31.7313C14.4081 30.9168 14.0845 30.1357 13.5086 29.5597C12.9327 28.9838 12.1515 28.6602 11.3371 28.6602C10.5226 28.6602 9.74143 28.9838 9.1655 29.5597C8.58957 30.1357 8.26602 30.9168 8.26602 31.7313H14.4081ZM74.6822 42.0909C74.9633 42.3926 75.3024 42.6346 75.6791 42.8025C76.0558 42.9703 76.4624 43.0606 76.8748 43.0678C77.2871 43.0751 77.6967 42.9993 78.0791 42.8448C78.4615 42.6904 78.8089 42.4605 79.1005 42.1688C79.3921 41.8772 79.622 41.5299 79.7765 41.1474C79.9309 40.7651 80.0068 40.3555 79.9995 39.9431C79.9922 39.5308 79.902 39.1241 79.7341 38.7474C79.5663 38.3707 79.3243 38.0316 79.0226 37.7505L74.6822 42.0909ZM40 3.06833L42.1702 0.898133C41.5944 0.32303 40.8138 0 40 0C39.1862 0 38.4056 0.32303 37.8298 0.898133L40 3.06833ZM0.977441 37.7505C0.675715 38.0316 0.433709 38.3707 0.265859 38.7474C0.0980089 39.1241 0.00775335 39.5308 0.000477939 39.9431C-0.00679747 40.3555 0.0690555 40.7651 0.223512 41.1474C0.377969 41.5299 0.607864 41.8772 0.899484 42.1688C1.1911 42.4605 1.53847 42.6904 1.92087 42.8448C2.30327 42.9993 2.71286 43.0751 3.12521 43.0678C3.53756 43.0606 3.94421 42.9703 4.32093 42.8025C4.69764 42.6346 5.03668 42.3926 5.31783 42.0909L0.977441 37.7505ZM19.5265 79.8441H60.4735V73.702H19.5265V79.8441ZM71.734 68.5836V31.7313H65.5919V68.5836H71.734ZM14.4081 68.5836V31.7313H8.26602V68.5836H14.4081ZM79.0226 37.7505L42.1702 0.898133L37.8298 5.23852L74.6822 42.0909L79.0226 37.7505ZM37.8298 0.898133L0.977441 37.7505L5.31783 42.0909L42.1702 5.23852L37.8298 0.898133ZM60.4735 79.8441C63.46 79.8441 66.3241 78.6577 68.4359 76.546C70.5476 74.4342 71.734 71.5701 71.734 68.5836H65.5919C65.5919 71.409 63.2989 73.702 60.4735 73.702V79.8441ZM19.5265 73.702C16.7011 73.702 14.4081 71.409 14.4081 68.5836H8.26602C8.26602 71.5701 9.45238 74.4342 11.5641 76.546C13.6759 78.6577 16.54 79.8441 19.5265 79.8441V73.702Z" fill="white"/>
</svg>
