<svg width="65" height="75" viewBox="0 0 65 75" fill="none" xmlns="http://www.w3.org/2000/svg">
<path d="M32.5 74.2569C27.9861 74.2569 23.7587 73.3999 19.8178 71.6858C15.8768 69.9718 12.4463 67.6546 9.52611 64.7344C6.60593 61.8143 4.2888 58.3837 2.57472 54.4428C0.860648 50.5019 0.00240741 46.2732 0 41.7569C0 40.7338 0.346667 39.8768 1.04 39.1858C1.73333 38.4949 2.59037 38.1482 3.61111 38.1458C4.63185 38.1434 5.49009 38.4901 6.18583 39.1858C6.88157 39.8816 7.22704 40.7386 7.22222 41.7569C7.22222 48.7986 9.67537 54.7726 14.5817 59.6789C19.488 64.5852 25.4607 67.0371 32.5 67.0347C39.5393 67.0323 45.5132 64.5804 50.4219 59.6789C55.3306 54.7774 57.7826 48.8034 57.7778 41.7569C57.773 34.7105 55.321 28.7377 50.4219 23.8386C45.5229 18.9395 39.5489 16.4864 32.5 16.4792H31.9583L35.0278 19.5486C35.75 20.2708 36.0967 21.1134 36.0678 22.0764C36.0389 23.0394 35.6922 23.8819 35.0278 24.6042C34.3055 25.3264 33.4485 25.7031 32.4567 25.7344C31.4648 25.7657 30.6066 25.4191 29.8819 24.6944L20.5833 15.3958C19.8611 14.6736 19.5 13.831 19.5 12.8681C19.5 11.9051 19.8611 11.0625 20.5833 10.3403L29.8819 1.04167C30.6042 0.319444 31.4624 -0.0272222 32.4567 0.00166667C33.4509 0.0305556 34.308 0.407315 35.0278 1.13194C35.6898 1.85417 36.0365 2.69676 36.0678 3.65972C36.0991 4.62268 35.7524 5.46528 35.0278 6.1875L31.9583 9.25694H32.5C37.0139 9.25694 41.2425 10.1152 45.1858 11.8317C49.1292 13.5481 52.5597 15.8653 55.4775 18.7831C58.3953 21.7008 60.7124 25.1314 62.4289 29.0747C64.1454 33.0181 65.0024 37.2455 65 41.7569C64.9976 46.2684 64.1405 50.497 62.4289 54.4428C60.7172 58.3885 58.4001 61.8191 55.4775 64.7344C52.5549 67.6498 49.1243 69.9669 45.1858 71.6858C41.2473 73.4047 37.0187 74.2618 32.5 74.2569Z" fill="white"/>
</svg>
