<svg width="65" height="62" viewBox="0 0 65 62" fill="none" xmlns="http://www.w3.org/2000/svg">
<path fill-rule="evenodd" clip-rule="evenodd" d="M7.18 0L45.5439 39.31L46.3724 40.1587L53.9166 47.8889V47.8888L58.6226 52.7108L62.4831 56.6667L57.8825 61.3808L29.2398 32.0317L29.24 57.6728L12.3548 44.32H0V17.6533H12.3358L13.9426 16.3575L2.57937 4.71406L7.18 0ZM55.0944 4.37734C65.4241 16.1959 67.6748 32.718 61.8467 46.5861L56.8221 41.4377C60.462 30.3434 58.1944 17.692 50.0188 8.53781L55.0944 4.37734ZM42.2265 14.9256C46.5917 19.9137 48.5634 26.2959 48.1413 32.5431L40.6333 24.85C39.8978 22.8322 38.7808 20.925 37.2822 19.2431L37.1449 19.0911L42.2265 14.9256ZM29.24 4.02375L29.2398 13.1759L24.2412 8.05406L29.24 4.02375Z" fill="#8A8787"/>
</svg>
